/* XPM */
static char * close_pressed_xpm[] = {
"18 18 29 1",
" 	c None",
".	c #3C3B37",
"+	c #40403E",
"@	c #858585",
"#	c #BFBFBF",
"$	c #D9D9D9",
"%	c #F3F3F3",
"&	c #3F3E3C",
"*	c #F5F5F5",
"=	c #C8C8C8",
"-	c #A9A9A9",
";	c #7B7B7B",
">	c #E0E0E0",
",	c #E2E2E2",
"'	c #7F7F7F",
")	c #464646",
"!	c #565656",
"~	c #595959",
"{	c #484848",
"]	c #777777",
"^	c #FFFFFF",
"/	c #9D9D9D",
"(	c #727272",
"_	c #C3C3C3",
":	c #A3A3A3",
"<	c #BDBDBD",
"[	c #ABABAB",
"}	c #B7B7B7",
"|	c #B8B8B8",
"........++........",
".....@#$%%$#@.....",
"...&#*=-;;-=*#&...",
"..&>,'......',>&..",
"..#,)!......~{,#..",
".@*']^/..../^('*@.",
".#=.._^:..:^_..=#.",
".$-...<^[[^<...-$.",
"+%;....}^^|....;%+",
"+%;....|^^}....;%+",
".$-...<^[[^<...-$.",
".#=.._^:..:^_..=#.",
".@*'(^/..../^]'*@.",
"..#,{~......!),#..",
"..&>,'......',>&..",
"...&#*=-;;-=*#&...",
".....@#$%%$#@.....",
"........++........"};
