/* XPM */
static char * hide_pressed_xpm[] = {
"18 18 23 1",
" 	c None",
".	c #3C3B37",
"+	c #40403E",
"@	c #858585",
"#	c #BFBFBF",
"$	c #D9D9D9",
"%	c #F3F3F3",
"&	c #3F3E3C",
"*	c #F5F5F5",
"=	c #C8C8C8",
"-	c #A9A9A9",
";	c #7B7B7B",
">	c #E0E0E0",
",	c #E2E2E2",
"'	c #7F7F7F",
")	c #555555",
"!	c #D2D2D2",
"~	c #D8D8D8",
"{	c #D7D7D7",
"]	c #D6D6D6",
"^	c #D5D5D5",
"/	c #D4D4D4",
"(	c #D0D0D0",
"........++........",
".....@#$%%$#@.....",
"...&#*=-;;-=*#&...",
"..&>,'......',>&..",
"..#,+........+,#..",
".@*'..........'*@.",
".#=............=#.",
".$-............-$.",
"+%;.)!~{]^//().;%+",
"+%;.)(//^]{~!).;%+",
".$-............-$.",
".#=............=#.",
".@*'..........'*@.",
"..#,+........+,#..",
"..&>,'......',>&..",
"...&#*=-;;-=*#&...",
".....@#$%%$#@.....",
"........++........"};
