/* XPM */
static char * menu_pressed_xpm[] = {
"22 23 19 1",
" 	c None",
".	c #C7C7C7",
"+	c #EBEBEB",
"@	c #FAFAFA",
"#	c #FDFDFD",
"$	c #C5C5C5",
"%	c #E5E5E5",
"&	c #F6F6F6",
"*	c #EFEFEF",
"=	c #F2F2F2",
"-	c #DEDEDE",
";	c #EEEEEE",
">	c #B8B8B8",
",	c #EAEAEA",
"'	c #B5B5B5",
")	c #D7D7D7",
"!	c #E4E4E4",
"~	c #E6E6E6",
"{	c #FFFFFF",
"                      ",
"                      ",
"                      ",
"                      ",
"                      ",
"                      ",
"                      ",
"                      ",
"                      ",
"    .+@########@+.    ",
"   $@@@@@@@@@@@@@@$   ",
"   %&&&&&&&&&&&&&&%   ",
"   *==============*   ",
"   -;;;;;;;;;;;;;;-   ",
"   >,,,,,,,,,,,,,,>   ",
"    ')!~~~~~~~~!)'    ",
"                      ",
"    {{          {{    ",
"                      ",
"                      ",
"                      ",
"                      ",
"                      "};
