/* XPM */
static char * shade_inactive_xpm[] = {
"18 18 16 1",
" 	c None",
".	c #3C3B37",
"+	c #444443",
"@	c #565656",
"#	c #5D5D5D",
"$	c #636363",
"%	c #585858",
"&	c #505050",
"*	c #3F3E3C",
"=	c #5E5E5E",
"-	c #5F5F5F",
";	c #424241",
">	c #494949",
",	c #474746",
"'	c #666666",
")	c #3C3B38",
"..................",
".....+@#$$#@+.....",
"....@$%&**&%$@....",
"...=-;......;-=...",
"..@-.+>>>>>>,.-@..",
".+$;.'''''''');$+.",
".@%............%@.",
".#&............&#.",
".$*............*$.",
".$*............*$.",
".#&............&#.",
".@%............%@.",
".+$;..........;$+.",
"..@-..........-@..",
"...=-;......;-=...",
"....@$%&**&%$@....",
".....+@#$$#@+.....",
".................."};
