/* XPM */
static char * shade_prelight_xpm[] = {
"18 18 25 1",
" 	c None",
".	c #3C3B37",
"+	c #40403E",
"@	c #858585",
"#	c #BFBFBF",
"$	c #D9D9D9",
"%	c #F3F3F3",
"&	c #3F3E3C",
"*	c #F5F5F5",
"=	c #C8C8C8",
"-	c #A9A9A9",
";	c #7B7B7B",
">	c #E0E0E0",
",	c #E2E2E2",
"'	c #7F7F7F",
")	c #4E4E4E",
"!	c #8C8C8C",
"~	c #898989",
"{	c #4D4D4D",
"]	c #6F6F6F",
"^	c #FFFFFF",
"/	c #707070",
"(	c #4F4F4F",
"_	c #515151",
":	c #4B4B4B",
"........++........",
".....@#$%%$#@.....",
"...&#*=-;;-=*#&...",
"..&>,'......',>&..",
"..#,)@!!!!!!~{,#..",
".@*']^^^^^^^^/'*@.",
".#=..(______:..=#.",
".$-............-$.",
"+%;............;%+",
"+%;............;%+",
".$-............-$.",
".#=............=#.",
".@*'..........'*@.",
"..#,+........+,#..",
"..&>,'......',>&..",
"...&#*=-;;-=*#&...",
".....@#$%%$#@.....",
"........++........"};
