/* XPM */
static char * stick_active_xpm[] = {
"18 18 17 1",
" 	c None",
".	c #3C3B37",
"+	c #5A5A5A",
"@	c #757575",
"#	c #828282",
"$	c #8E8E8E",
"%	c #767676",
"&	c #8F8F8F",
"*	c #7A7A7A",
"=	c #6A6A6A",
"-	c #555555",
";	c #858585",
">	c #878787",
",	c #575757",
"'	c #6B6B6B",
")	c #949494",
"!	c #939393",
"..................",
".....+@#$$#@+.....",
"....%&*=--=*&%....",
"...;>,......,>;...",
"..%>....--....>%..",
".+&,..')!!)'..,&+.",
".@*..'!))))!'..*@.",
".#=..))))))))..=#.",
".$-.-!))))))!-.-$.",
".$-.-!))))))!-.-$.",
".#=..))))))))..=#.",
".@*..'!))))!'..*@.",
".+&,..')!!)'..,&+.",
"..%>....--....>%..",
"...;>,......,>;...",
"....%&*=--=*&%....",
".....+@#$$#@+.....",
".................."};
